<?xml version="1.0" standalone="no"?>
<!DOCTYPE svg PUBLIC "-//W3C//DTD SVG 20010904//EN"
 "http://www.w3.org/TR/2001/REC-SVG-20010904/DTD/svg10.dtd">
<svg version="1.0" xmlns="http://www.w3.org/2000/svg"
 width="512.000000pt" height="512.000000pt" viewBox="0 0 512.000000 512.000000"
 preserveAspectRatio="xMidYMid meet">

<g transform="translate(0.000000,512.000000) scale(0.100000,-0.100000)"
fill="#000000" stroke="none">
<path d="M3205 5093 c-120 -14 -286 -83 -385 -159 -189 -145 -303 -344 -325
-566 -4 -42 -11 -68 -18 -68 -7 0 -32 41 -56 90 -121 246 -270 413 -432 483
-165 72 -434 68 -659 -11 -64 -22 -263 -125 -313 -162 -111 -81 -222 -213
-277 -331 -32 -71 -60 -186 -60 -254 0 -177 164 -503 387 -767 104 -124 101
-131 -35 -65 -48 24 -97 46 -107 49 -236 67 -388 83 -505 53 -150 -37 -189
-64 -275 -184 -85 -118 -125 -258 -125 -439 0 -300 105 -621 288 -882 150
-213 331 -356 527 -416 48 -15 93 -18 230 -18 154 0 178 3 255 26 47 14 97 29
112 32 32 7 32 8 -19 -97 -33 -67 -79 -203 -102 -300 -16 -68 -14 -259 4 -345
40 -190 137 -374 277 -523 64 -68 124 -112 208 -152 167 -78 303 -83 505 -19
90 29 190 95 272 180 56 57 137 176 159 234 10 24 20 48 24 53 4 6 16 43 25
82 26 106 37 109 80 22 46 -90 75 -135 143 -221 56 -72 179 -178 205 -178 9 0
18 -4 21 -9 3 -5 16 -11 28 -14 13 -3 55 -15 93 -26 86 -25 303 -29 375 -7
286 88 460 269 516 536 17 77 18 282 3 348 -25 114 -32 140 -51 192 -22 63
-60 136 -100 197 -55 83 -78 139 -78 192 0 78 36 177 80 221 46 46 111 60 281
60 356 0 627 135 701 350 35 101 39 127 36 230 -4 111 -17 166 -89 382 -52
157 -95 249 -160 343 -118 171 -270 245 -504 245 -101 0 -137 -5 -225 -28 -92
-25 -165 -52 -222 -83 -27 -14 -48 -11 -48 7 0 8 18 42 41 75 46 68 144 263
178 354 13 33 27 69 31 80 5 11 11 31 15 45 3 14 15 59 26 100 40 156 35 386
-12 519 -38 106 -104 219 -179 305 -55 63 -228 169 -322 197 -138 41 -315 58
-443 42z m245 -207 c303 -35 464 -158 541 -416 19 -61 19 -327 0 -395 -57
-208 -148 -409 -253 -556 -32 -44 -58 -87 -58 -95 0 -8 16 -30 35 -48 19 -19
35 -37 35 -40 0 -4 14 -20 30 -38 17 -17 30 -34 30 -39 0 -4 6 -14 13 -21 7
-7 20 -29 30 -49 l17 -37 76 39 c78 39 151 65 284 101 136 36 305 7 399 -70
79 -65 154 -184 222 -355 54 -133 71 -211 71 -327 1 -93 -2 -111 -25 -160 -58
-120 -140 -171 -350 -219 -67 -15 -436 -13 -519 3 -37 7 -70 11 -73 8 -3 -3
-5 -17 -5 -32 0 -14 -7 -35 -15 -46 -8 -10 -15 -29 -15 -41 0 -12 -4 -25 -10
-28 -5 -3 -10 -17 -10 -31 0 -13 -3 -24 -7 -24 -9 0 -33 -49 -33 -67 0 -7 -4
-13 -10 -13 -5 0 -10 -9 -10 -20 0 -11 -4 -20 -10 -20 -5 0 -22 -21 -37 -47
-15 -27 -31 -49 -35 -51 -4 -2 -8 -10 -8 -18 0 -8 -4 -14 -8 -14 -4 0 -16 -14
-26 -31 -18 -30 -18 -31 3 -46 34 -24 203 -287 264 -413 88 -180 101 -225 101
-360 1 -100 -2 -124 -24 -179 -34 -86 -137 -194 -230 -239 -109 -53 -249 -92
-329 -92 -146 0 -319 113 -428 282 -78 121 -159 318 -209 511 l-17 67 -56 0
c-31 0 -77 -8 -103 -17 l-48 -17 0 -180 c0 -571 -172 -826 -541 -803 -110 7
-152 17 -234 57 -127 62 -265 223 -328 383 -118 297 -76 575 118 780 49 52 52
57 30 57 -14 0 -45 27 -144 123 -27 26 -54 47 -60 47 -6 0 -16 10 -22 23 -16
31 -15 30 -39 17 -23 -12 -112 -37 -210 -60 -61 -13 -249 -9 -315 8 -199 52
-392 228 -528 483 -35 66 -106 243 -127 314 -6 22 -18 65 -27 95 -11 39 -16
101 -17 210 -1 137 2 163 22 225 32 95 44 116 98 169 76 77 180 112 294 101
69 -7 142 -22 175 -35 11 -4 36 -14 55 -20 62 -23 278 -141 372 -204 48 -32
59 -36 71 -25 17 18 47 78 47 96 0 7 5 13 10 13 6 0 10 9 10 20 0 12 9 30 20
42 11 12 20 30 20 40 0 10 4 18 10 18 5 0 14 9 20 20 9 17 6 25 -17 49 -28 29
-38 40 -129 146 -361 423 -444 620 -364 868 47 146 186 276 425 396 118 59
196 81 310 88 85 4 110 2 165 -16 102 -34 164 -68 242 -135 133 -114 250 -295
339 -526 11 -30 32 -89 45 -130 53 -160 55 -162 83 -155 14 4 62 10 106 14
l80 6 -2 30 c-1 17 -6 59 -12 95 -33 205 -41 377 -21 468 6 26 15 70 21 97 6
28 27 83 46 124 74 157 202 237 423 266 126 16 154 16 290 1z"/>
<path d="M3272 4313 c-5 -10 -13 -45 -17 -78 -4 -33 -13 -85 -22 -115 -26 -98
-44 -164 -65 -240 -30 -109 -33 -137 -15 -155 9 -8 26 -15 39 -15 13 0 29 -5
35 -11 9 -9 20 15 43 92 38 127 46 160 59 224 5 28 15 74 20 103 6 30 11 85
11 122 0 58 -3 71 -19 80 -29 15 -59 12 -69 -7z"/>
<path d="M1552 4118 c-18 -18 -14 -70 8 -98 11 -14 20 -29 20 -33 0 -4 17 -34
39 -65 106 -157 150 -221 179 -261 18 -24 32 -50 32 -58 0 -25 57 -7 95 31 17
17 15 21 -54 119 -39 56 -113 164 -163 240 -79 118 -95 137 -118 137 -14 0
-31 -5 -38 -12z"/>
<path d="M1597 3163 c-4 -3 -7 -15 -7 -25 0 -10 -4 -18 -10 -18 -5 0 -10 -7
-10 -15 0 -15 -4 -25 -28 -72 -7 -13 -12 -30 -12 -38 0 -8 -4 -15 -10 -15 -5
0 -10 -11 -10 -25 0 -14 -4 -25 -8 -25 -9 0 -42 -70 -42 -88 0 -7 -4 -12 -10
-12 -5 0 -10 -9 -10 -19 0 -11 -4 -23 -10 -26 -5 -3 -10 -15 -10 -26 0 -10 -4
-19 -10 -19 -5 0 -10 -9 -10 -20 0 -25 27 -32 110 -28 56 3 66 6 75 26 13 29
35 28 35 -2 0 -20 7 -25 44 -35 25 -6 97 -11 160 -11 108 0 116 1 116 19 0 11
4 22 9 25 5 4 12 25 16 49 11 74 14 77 51 77 31 0 34 -2 24 -19 -5 -11 -10
-40 -10 -65 0 -25 -4 -47 -10 -51 -5 -3 -7 -12 -4 -20 5 -12 49 -14 265 -15
l259 0 0 30 c0 17 -11 52 -24 78 -30 61 -39 119 -26 179 13 56 70 140 105 153
14 5 25 16 25 25 0 12 -15 15 -84 15 -91 0 -102 -6 -108 -55 l-3 -30 -18 33
c-10 17 -24 32 -32 32 -8 0 -15 4 -15 9 0 5 -62 12 -137 15 -76 4 -189 9 -250
12 l-113 5 0 -25 c0 -14 -4 -26 -10 -26 -5 0 -10 -20 -10 -44 0 -24 -7 -57
-15 -72 -8 -16 -15 -45 -15 -64 0 -19 -5 -42 -10 -50 -7 -10 -10 34 -10 133
l0 147 -93 0 c-52 0 -97 -3 -100 -7z m483 -171 c0 -15 -6 -17 -35 -14 -21 3
-35 10 -35 18 0 9 12 14 35 14 27 0 35 -4 35 -18z m322 -111 c-6 -3 -12 -24
-14 -46 -4 -48 -22 -53 -26 -7 -2 17 -8 32 -15 32 -6 0 4 15 23 33 31 29 35
31 38 13 2 -10 -1 -22 -6 -25z"/>
<path d="M4050 2743 c-40 -8 -46 -18 -41 -70 l6 -48 105 3 c114 4 150 17 150
55 0 49 -36 67 -127 66 -37 -1 -79 -4 -93 -6z"/>
<path d="M3112 2478 l3 -143 25 0 c23 0 25 4 28 58 3 50 5 56 18 43 7 -8 14
-24 14 -35 0 -12 4 -21 9 -21 5 0 11 -10 13 -22 4 -29 61 -38 88 -13 16 14 18
14 23 0 9 -22 93 -21 106 3 9 16 11 16 23 -1 10 -13 24 -18 48 -15 l35 3 3 58
c2 31 7 57 12 57 5 0 10 -26 12 -57 3 -53 5 -58 27 -61 29 -4 50 19 52 57 2
26 2 26 6 2 8 -43 36 -63 84 -59 43 3 44 4 47 41 2 27 -1 39 -13 44 -10 3 -21
0 -26 -8 -6 -10 -9 -7 -9 13 0 20 6 27 23 30 18 2 23 10 25 45 3 38 1 43 -22
49 -17 4 -26 13 -26 25 0 15 -7 19 -40 19 -36 0 -40 -2 -40 -25 0 -14 -4 -25
-9 -25 -5 0 -11 -8 -13 -17 -3 -16 -6 -15 -23 5 -16 18 -30 22 -74 22 -36 0
-60 -5 -72 -16 -17 -15 -19 -15 -34 0 -27 26 -85 21 -112 -11 l-23 -26 0 36
c0 21 -4 37 -9 37 -5 0 -11 10 -13 23 -3 20 -9 22 -86 25 l-83 3 3 -143z m108
57 c0 -9 -9 -15 -25 -15 -16 0 -25 6 -25 15 0 9 9 15 25 15 16 0 25 -6 25 -15z
m69 -92 c-1 -27 -4 -39 -6 -28 -3 11 -10 26 -15 33 -7 8 -7 12 1 12 6 0 11 7
11 15 0 8 2 15 5 15 3 0 4 -21 4 -47z m108 31 c-3 -3 -12 -4 -19 -1 -8 3 -5 6
6 6 11 1 17 -2 13 -5z"/>
<path d="M945 2320 c-15 -16 -17 -26 -9 -48 12 -34 67 -50 179 -51 93 -1 116
8 98 39 -7 11 -13 33 -13 50 l0 30 -118 0 c-107 0 -121 -2 -137 -20z"/>
<path d="M1630 2317 c-29 -14 -80 -63 -80 -77 0 -6 -4 -10 -10 -10 -15 0 -12
-122 4 -142 7 -10 16 -18 20 -18 4 0 14 -7 22 -15 9 -8 24 -15 35 -15 10 0 19
-4 19 -10 0 -5 9 -10 19 -10 11 0 23 5 26 10 3 6 15 10 25 10 25 0 80 54 80
79 0 11 5 23 10 26 6 3 10 19 10 35 0 16 -4 32 -10 35 -5 3 -10 16 -10 29 0
26 -19 46 -67 70 -37 18 -58 19 -93 3z m106 -74 c15 -20 19 -103 5 -103 -6 0
-13 5 -16 10 -3 6 -19 10 -36 10 -33 0 -34 4 -17 60 14 44 41 53 64 23z m-146
-69 c0 -9 9 -32 21 -50 25 -41 15 -44 -17 -6 -24 27 -33 72 -14 72 6 0 10 -7
10 -16z"/>
<path d="M1916 2294 c-9 -8 -16 -19 -16 -23 0 -4 -8 -16 -17 -27 -34 -38 -43
-64 -43 -118 0 -44 4 -58 26 -80 38 -38 95 -36 135 4 28 27 59 32 59 8 0 -19
34 -37 68 -38 17 0 32 4 32 9 0 5 8 12 19 16 10 3 23 15 29 28 10 21 10 22 18
2 13 -36 42 -55 81 -55 36 1 73 18 73 34 0 4 7 15 16 24 30 30 3 132 -35 132
-20 0 -11 19 10 22 30 4 47 33 33 56 -8 11 -27 18 -59 20 -71 5 -92 -3 -100
-37 -4 -20 -11 -28 -21 -24 -8 3 -14 11 -14 18 0 40 -94 63 -132 33 -27 -23
-48 -62 -48 -90 0 -16 -4 -28 -10 -28 -5 0 -10 7 -10 15 0 8 -6 15 -14 15 -25
0 -28 19 -7 42 26 27 26 35 2 48 -28 14 -57 12 -75 -6z m228 -86 c6 -26 -3
-98 -13 -98 -26 0 -43 62 -21 75 6 3 10 15 10 26 0 26 16 24 24 -3z m-194 -84
c0 -8 -7 -14 -15 -14 -8 0 -15 9 -15 20 0 13 5 18 15 14 8 -4 15 -12 15 -20z
m390 0 c0 -8 -10 -14 -25 -14 -14 0 -25 5 -25 10 0 6 -7 10 -15 10 -8 0 -15
-4 -15 -10 0 -5 -7 -10 -15 -10 -8 0 -15 8 -15 18 0 14 8 17 55 14 39 -3 55
-8 55 -18z"/>
<path d="M2566 2303 c-31 -8 -48 -31 -44 -60 2 -19 9 -29 23 -31 17 -2 20 -9
17 -37 -4 -32 -2 -35 21 -35 27 0 40 -19 27 -39 -5 -10 -12 -8 -27 8 -19 20
-21 20 -51 5 -18 -8 -32 -17 -32 -20 0 -7 24 -47 37 -61 25 -28 127 -8 154 29
3 5 11 -3 19 -17 12 -22 20 -25 69 -25 55 1 91 16 91 39 0 6 5 11 10 11 13 0
13 77 0 85 -7 4 -7 12 0 25 20 38 2 100 -29 100 -6 0 -11 5 -11 10 0 14 -82
12 -101 -3 -35 -28 -33 -77 5 -77 19 0 21 -5 18 -45 -4 -40 -2 -45 17 -45 12
0 21 -6 21 -15 0 -8 -4 -15 -10 -15 -5 0 -10 5 -10 11 0 7 -17 10 -45 7 l-45
-3 0 83 c0 62 -4 87 -15 99 -17 16 -77 25 -109 16z m49 -83 c3 -5 -1 -10 -10
-10 -9 0 -13 5 -10 10 3 6 8 10 10 10 2 0 7 -4 10 -10z"/>
<path d="M3007 2293 c-4 -3 -7 -39 -7 -80 l0 -73 34 0 c39 0 69 -26 45 -40 -8
-6 -15 -6 -17 0 -2 6 -21 10 -43 10 -36 0 -39 -2 -39 -27 1 -48 21 -63 84 -63
62 0 86 14 86 49 0 30 28 15 32 -17 3 -26 6 -27 66 -30 56 -3 65 0 82 20 30
35 27 110 -5 142 l-25 25 23 3 c17 2 23 11 25 36 l3 33 -83 -3 -83 -3 0 -75
c0 -65 2 -75 19 -78 10 -2 22 2 26 8 5 7 15 10 24 7 20 -8 21 -47 1 -47 -8 0
-15 5 -15 11 0 7 -14 10 -35 7 -31 -4 -35 -1 -35 19 0 13 -4 23 -10 23 -5 0
-10 5 -10 11 0 6 -7 17 -16 26 -14 14 -13 17 8 27 26 13 35 50 18 72 -13 14
-140 21 -153 7z"/>
<path d="M3442 2248 c3 -31 6 -33 46 -36 27 -2 42 -8 42 -17 0 -7 -16 -42 -35
-78 -47 -87 -46 -97 10 -97 32 0 45 4 45 14 0 8 9 31 19 53 55 111 70 150 64
171 -5 21 -11 22 -100 22 l-94 0 3 -32z"/>
<path d="M3673 2250 c-18 -16 -33 -35 -33 -42 1 -21 26 -48 44 -48 13 0 16
-12 16 -70 l0 -70 34 0 33 0 6 122 c3 68 3 126 1 130 -12 19 -70 6 -101 -22z"/>
<path d="M3360 1400 c0 -5 -6 -10 -13 -10 -8 0 -25 -9 -38 -21 -24 -20 -24
-20 -5 -52 11 -18 39 -70 64 -117 25 -47 56 -100 69 -117 27 -37 66 -51 88
-33 29 24 17 80 -35 175 -28 50 -60 111 -73 137 -14 30 -29 48 -39 48 -10 0
-18 -4 -18 -10z"/>
<path d="M2119 1243 c-14 -35 -23 -55 -53 -126 -46 -107 -43 -167 9 -167 28 0
64 43 96 116 12 27 32 73 45 102 30 66 30 72 -2 72 -14 0 -32 7 -40 15 -23 23
-43 18 -55 -12z"/>
</g>
</svg>
