<?xml version="1.0" encoding="UTF-8" standalone="no"?>
<!-- Created with Inkscape (http://www.inkscape.org/) -->

<svg
   version="1.1"
   id="svg1"
   width="233.33333"
   height="212"
   viewBox="0 0 233.33333 212"
   sodipodi:docname="LOGO AFRICARS.eps"
   xmlns:inkscape="http://www.inkscape.org/namespaces/inkscape"
   xmlns:sodipodi="http://sodipodi.sourceforge.net/DTD/sodipodi-0.dtd"
   xmlns="http://www.w3.org/2000/svg"
   xmlns:svg="http://www.w3.org/2000/svg">
  <defs
     id="defs1" />
  <sodipodi:namedview
     id="namedview1"
     pagecolor="#ffffff"
     bordercolor="#000000"
     borderopacity="0.25"
     inkscape:showpageshadow="2"
     inkscape:pageopacity="0.0"
     inkscape:pagecheckerboard="0"
     inkscape:deskcolor="#d1d1d1">
    <inkscape:page
       x="0"
       y="0"
       inkscape:label="1"
       id="page1"
       width="233.33333"
       height="212"
       margin="0"
       bleed="0" />
  </sodipodi:namedview>
  <g
     id="g1"
     inkscape:groupmode="layer"
     inkscape:label="1">
    <path
       id="path1"
       d="m 276.109,1194.48 c 31.047,-58.74 67.633,-107.89 114.157,-156.68 l 2.164,-1.16 12.8,-13.34 8.211,-28.32 -32.089,-7.949 -6.622,3.535 C 335.789,1011.34 286.125,1026.59 241.938,1033.54 188.137,1042 118.211,1041.8 78.4805,1001.32 5.04688,926.508 19.793,821.203 45.7266,731.488 57.7422,700.008 71.207,669.141 88.6367,639.844 96.4023,626.793 104.836,614.078 113.715,601.645 l 2.375,-3.329 2.64,-2.75 6.208,-8.683 2.636,-2.754 3.106,-4.344 5.277,-5.504 3.098,-4.336 C 208.508,497.797 275.371,457.668 384.004,464.066 l 9.976,0.891 15.075,2.125 23.527,4.191 82.531,20.442 10.18,-35.129 -13.402,-4.172 c -4.5,-5.125 -10.942,-17.496 -13.45,-22.406 -8.132,-15.91 -15.089,-32.684 -21.054,-49.387 -11.328,-31.742 -17.707,-64.293 -16.321,-97.793 1.692,-40.762 11.829,-77.945 32.051,-114.219 29.59,-53.093 75.457,-107.484 136.992,-130.6481 35.903,-13.5117 74.414,-17.4218 112.618,-11.3359 65.804,10.4922 122.148,48.9258 157.769,100.461 16.68,24.133 29.008,51.121 35.231,79.211 l 2.195,9.922 1.258,2.015 0.996,4.493 2.281,10.332 28.922,7.164 11.848,-12.356 5.117,-9.566 c 28.446,-53.164 67.976,-101.438 127.866,-126.3088 51.13,-21.2344 110.58,-24.8789 164.17,-9.5586 152.35,43.5464 182.28,185.2654 124.16,309.4064 -30.34,64.789 -76.45,117.59 -123.25,172.558 l -2.56,2.668 -11.02,12.598 -5.01,5.215 c -14.96,15.598 -29.92,31.195 -44.88,46.789 l -2.9,3.02 -2.72,9.367 3.96,17.879 20.39,5.05 4.27,-0.808 c 111.47,-21.09 226.29,-42.106 340.26,-26.278 102.24,25.555 158.63,75.813 140.86,178.219 -15.07,51.977 -30.71,106.492 -57.98,154.293 -39.86,69.88 -102.78,97.73 -186.03,92.49 -24.74,-1.56 -49.38,-5.9 -73.32,-11.8 l -20.8,-6.77 -25.83,-9.7 -20.76,-8.74 -19.17,-4.74 -15.42,8.23 -4.03,13.89 2.9,13.12 5.34,4.38 5.04,8.06 2.97,2.44 7.56,12.09 2.97,2.44 c 23.4,37.49 45.1,76.5 61.27,117.18 35.03,88.15 40.06,175.77 -16.72,257.81 -7.45,10.76 -16.11,20.76 -25.74,29.91 -39.4,37.42 -94.06,59.87 -149.14,68.94 -51.02,8.41 -106.67,6.04 -155.74,-9.96 C 948.07,1521.9 875.605,1440.39 869.734,1350 l -1.273,-19.59 -7.258,-11.63 -19.93,-4.94 -13.925,7.44 -15.778,32.05 -3.89,7.28 c -36.992,69.15 -89.789,136.28 -177.637,149.37 -47.684,7.11 -97.34,3.36 -143.879,-8.11 -54.035,-13.31 -106.894,-37.79 -149.387,-71.56 -37.711,-29.97 -69.254,-69.09 -80.582,-114.51 -9.492,-38.07 -3.437,-75.3 14.813,-110.32 l 0.18,-0.35 4.921,-10.65"
       style="fill:#ffffff;fill-opacity:1;fill-rule:evenodd;stroke:none"
       transform="matrix(0.13333333,0,0,-0.13333333,0,212)" />
    <path
       id="path2"
       d="m 1073.12,573.121 c 35.02,-74.078 99.11,-150.82 134.81,-222.84 12.76,-25.73 -18.57,-38.101 -33.52,-17.207 -10.8,15.09 -22.57,38.305 -33.64,55.199 -23.02,35.114 -47.02,73.618 -68.04,109.774 -30.51,52.488 -28.39,84.906 -96.542,54.043 -39.098,-17.707 -18.239,-85.82 -13.633,-118.774 11.32,-81.027 46.425,-193.339 104.015,-256.902 68.37,-75.453 144.46,-80.3437 237.67,-38.312 96.39,43.468 111.85,122.839 73.19,210.371 -33.11,74.98 -88.01,145.117 -143.7,207.23 -13.5,15.059 -69.4,79.129 -82.83,85.758 -23.5,11.605 -42.95,-2.856 -56.44,-19.5 -14.73,-18.172 -34.05,-21.953 -21.34,-48.84 z M 783.746,554.258 c -4.598,22.199 -36.633,27.254 -56.031,19.496 -10.953,-4.383 -38.426,-30.828 -48.828,-40.106 C 645.898,504.234 615.973,482.184 580.98,455.598 505.789,398.465 486.84,314.352 512.652,229.883 536.805,150.836 599.82,75.1289 692.375,63.6289 803.023,49.875 864.379,91.7344 889.215,190.359 c 20.859,82.848 13.23,172.012 8.254,256.196 -2.457,41.601 11.265,103.371 -49.61,104.578 -32.121,0.633 -29.781,-21.781 -35.812,-42.801 -5.402,-18.82 -11.504,-37.723 -18.195,-56.187 -12.75,-35.2 -28.629,-72.336 -45.356,-106.09 -6.269,-12.653 -18.414,-44.481 -31.078,-49.383 -31.172,-12.067 -27.105,21.644 -16.332,40.012 15.367,26.214 87.008,196.609 82.66,217.574 z m 665.434,469.682 c -81.78,-13.32 -170.25,-66.295 -240.74,-106.604 -14.09,-8.059 -41.28,-19.398 -47.94,-33.313 -7.03,-14.671 -3.2,-45.648 17.86,-49.496 11.62,-2.125 114.8,9.696 135.1,11.688 20.33,2 117.23,9.68 131.49,5.824 20.51,-5.547 22.48,-33.922 -12.67,-35.301 -22.94,-0.902 -43.87,-1.937 -66.83,-3.617 -44.9,-3.285 -90.02,-6.949 -134.84,-11.07 -16.47,-1.512 -53.51,-0.848 -64.06,-12.574 -8.21,-9.125 -11.11,-43.989 -7.49,-55.137 12.51,-38.551 176.51,-58.047 217.9,-63.328 73.83,-9.418 196.6,-12.641 259.19,27.48 81.05,51.953 37.93,156.438 5.05,223.367 -39.88,81.171 -94.64,117.941 -192.02,102.081 z M 170.672,1003.66 C 56.5586,987.93 54.0156,855.023 76.5313,774.328 100.566,688.184 154.305,590.906 234.867,538.727 c 94.059,-60.926 199.278,-33.469 298.821,-0.129 24.726,8.281 115.761,53.84 127.398,73.078 12.695,20.988 -8.594,47.668 -19.645,66.281 -15.722,26.492 -38.164,16.449 -66.293,14.656 -50.933,-3.246 -103.406,-3.5 -154.46,-2.98 -25.137,0.254 -49.864,1.922 -75.086,2.422 -38.821,0.765 -35.637,34.711 -5.571,35.656 46.797,1.473 101.719,-4.254 152.102,-2.809 26.406,0.758 52.566,2.461 78.808,3.25 28.504,0.856 54.68,0.215 53.571,33.719 -1.5,45.289 -57.082,63.77 -92.621,87.184 -36.039,23.746 -71.719,47.703 -108.961,69.859 -71.078,42.281 -164.442,96.856 -252.258,84.746 z m 975.288,335.23 c 9.77,-51.98 -27.88,-158 -44.97,-211.08 -5.08,-15.76 -32.42,-92.14 -32.5,-101.56 -0.18,-19.37 20.93,-29.332 33.31,-44.242 15.03,-18.094 25.41,-26.438 51.06,-15.383 38.48,16.594 123.49,120.895 146.05,157.655 36.95,60.24 67.87,125.76 70.29,196.23 2.89,84.53 -30.17,153.72 -119.81,183.96 -67.16,22.66 -187.28,24.88 -250.652,-6.37 -155.058,-76.47 -70.703,-329.35 -35.734,-449.79 58.346,-11.15 63.816,-20.37 81.376,34.49 10.07,31.43 19.58,63.01 29.22,94.56 9.65,31.6 18.53,63.62 28.2,95.09 3.64,11.84 11.99,38.26 10.31,49.58 -3.39,22.83 15.48,32.05 33.85,16.86 z M 469.762,1017.15 c 17.976,-16.01 36.402,-31.486 55.125,-46.689 23.621,-19.184 92.078,-83.547 123.39,-71.301 19.93,7.793 33.575,37.496 46.805,54.36 26.328,33.566 31.746,25.14 8.152,62.81 -24.933,39.82 -63.199,85.08 -91.492,123.43 -13.308,18.04 -89.387,113.58 -88.945,127.3 0.418,13.08 18,22.5 29.172,14.32 1.133,-0.83 21.586,-27.25 23.379,-30.04 11.48,-17.83 31.871,-45.32 45.605,-61.94 30.914,-37.42 64.836,-83.99 92.86,-123.56 12.562,-17.73 30.972,-54.94 57.863,-40.37 35.543,19.26 41.832,23.28 83.191,33.53 37.903,44.37 -48.258,237.42 -79.332,284.81 -48.094,73.34 -118.379,136.11 -217.375,131.29 -77.379,-3.76 -210.918,-72.69 -243.769,-141.11 -57.899,-120.58 83.679,-231.07 155.371,-316.84 z m 354.441,351.06 4.02,-7.52 4.48,-9.11 4.488,-9.11 4.485,-9.11 2.176,-1.16 5.164,1.28 1.254,2.01 0.335,5.19 0.336,5.2 0.34,5.19 c 6.371,98.11 84.574,184.99 181.859,216.73 118.07,38.53 281.86,6 352.31,-95.77 62.27,-89.96 53.69,-184.35 18.5,-272.89 -16.58,-41.72 -39.07,-82.15 -62.85,-120.21 l -1.26,-2.01 -2.97,-2.44 -1.26,-2.02 -1.26,-2.01 -1.26,-2.02 -1.26,-2.01 -1.26,-2.02 -1.26,-2.01 -2.97,-2.44 -1.26,-2.02 -1.26,-2.02 -1.26,-2.01 -1.26,-2.02 -2.98,-2.44 -0.79,-3.6 0.92,-3.18 2.18,-1.16 10.31,2.55 9.86,4.15 9.86,4.14 13.29,5 13.29,4.99 21.89,7.13 c 26.22,6.49 52.25,10.91 77.51,12.5 82.55,5.2 157,-19.82 203.62,-101.55 30.62,-53.691 51.91,-124.441 62.19,-159.902 11.64,-65.789 1.53,-123.746 -38.97,-159.754 -52.05,-46.297 -141.33,-62.379 -218.88,-62.035 -46.61,0.203 -83.14,2.035 -100.15,-36.961 -36.28,-83.129 13.24,-86.141 45.63,-163.098 58.52,-139 20.77,-290.426 -139.34,-336.1873 -60.53,-17.3008 -129.45,-15.2774 -182.12,6.5976 -63.36,26.3125 -105.96,83.9607 -136.847,141.7107 l -4.027,7.52 -2.637,2.754 -6.875,-1.703 -0.804,-3.606 -0.793,-3.605 -1.262,-2.016 -0.797,-3.602 -0.797,-3.605 C 947.172,173.055 934.082,144.078 916.02,117.941 851.395,24.4336 731.363,-18.5391 623.121,22.2031 556.48,47.2852 507.781,105.035 476.68,160.836 c -19.59,35.144 -32.125,74.082 -34.086,121.383 -1.383,33.304 4.246,67.379 17.242,103.785 15.453,43.312 35.281,79.234 43.117,81.68 l -0.922,3.175 -65.332,-16.183 -24.531,-4.367 -15.934,-2.246 -10.777,-0.965 C 266.141,439.984 194.188,486.777 124.352,559.566 l -3.098,4.344 -2.645,2.754 -2.64,2.75 -3.102,4.344 -2.64,2.754 -3.102,4.34 -3.098,4.339 -2.644,2.754 -3.1017,4.344 c -9.0977,12.738 -17.8047,25.863 -25.8438,39.379 -18.1445,30.492 -31.9102,62.07 -44.3828,94.816 -27.808606,95.922 -41.8008,206.34 36.7305,286.346 74.9258,76.33 241.7698,33.85 319.1448,-7.45 l 6.875,1.71 -2.301,7.95 -2.641,2.75 -2.64,2.75 -2.641,2.75 -2.18,1.16 c -48.312,50.36 -85.66,99.59 -119.109,162.97 l -4.945,10.7 c -97.817,187.74 164.566,360.65 378.609,328.75 92.129,-13.73 149.578,-80.77 191.246,-158.66"
       style="fill:#000000;fill-opacity:1;fill-rule:evenodd;stroke:none"
       transform="matrix(0.13333333,0,0,-0.13333333,0,212)" />
    <path
       id="path3"
       d="M 407.309,805.461 C 441.523,1297.05 1352.72,1325.07 1374.73,816.746 1396.87,187.223 322.855,251.652 407.309,805.461"
       style="fill:#00a990;fill-opacity:1;fill-rule:evenodd;stroke:none"
       transform="matrix(0.13333333,0,0,-0.13333333,0,212)" />
    <path
       id="path4"
       d="m 678.523,712.066 c -7.074,-9.562 -14.277,-19.132 -21.242,-28.746 2.801,0.743 5.457,1.063 7.836,1.028 6.891,-0.094 12.485,-2.45 16.903,-7.02 4.46,-4.613 6.429,-10.281 6.035,-17.133 -0.426,-7.382 -3.325,-13.379 -8.844,-18.187 -5.469,-4.766 -12.359,-7.145 -20.906,-7.043 -9.676,0.109 -16.668,3.039 -21.348,8.828 -3.98,4.918 -5.762,10.68 -5.363,17.297 0.215,3.523 1.097,6.84 2.371,10.082 1.254,3.203 3.558,7.156 6.859,11.805 6.973,9.804 14.086,19.554 21.18,29.343 5.504,-0.086 11.012,-0.168 16.519,-0.254 z m -4.105,-51.019 c 0.219,3.762 -0.98,6.906 -3.59,9.465 -2.613,2.558 -5.922,3.847 -9.937,3.902 -4.262,0.055 -7.735,-1.168 -10.637,-3.703 -2.922,-2.551 -4.492,-5.813 -4.731,-9.797 -0.242,-4.055 0.899,-7.422 3.422,-10.008 2.571,-2.633 5.926,-3.914 10.196,-3.965 4.144,-0.05 7.699,1.262 10.531,3.852 2.879,2.637 4.5,6.027 4.746,10.254 z m 23.937,12.332 c 0.352,6.141 1.024,11.234 2.125,15.242 1.594,5.797 3.77,10.422 6.567,13.996 2.746,3.52 5.992,6.149 9.836,7.84 3.863,1.707 7.91,2.508 12.414,2.438 9.383,-0.141 16.129,-3.821 20.305,-11.18 4.168,-7.363 5.968,-16.949 5.324,-28.77 -0.731,-13.48 -4.305,-23.746 -10.59,-30.683 -4.953,-5.469 -11.516,-8.192 -19.559,-8.098 -5.023,0.059 -9.261,1.035 -12.781,2.981 -3.43,1.898 -6.211,4.441 -8.246,7.585 -2.008,3.118 -3.613,7.083 -4.598,11.879 -0.98,4.782 -1.164,10.387 -0.797,16.77 z m 13.836,0.562 c -0.214,-4.503 -0.382,-8.164 -0.117,-10.929 0.367,-3.84 1.223,-6.914 2.356,-9.395 1.109,-2.414 2.617,-4.371 4.34,-5.554 1.906,-1.309 4.039,-1.891 6.3,-1.918 4.016,-0.051 7.473,1.632 10.075,4.91 3.476,4.375 5.55,11.769 6.121,22.179 0.589,10.731 -0.571,18.262 -3.524,22.555 -2.387,3.477 -5.601,5.184 -9.484,5.242 -4.008,0.059 -7.266,-1.496 -9.914,-4.785 -3.547,-4.391 -5.649,-11.848 -6.153,-22.305 z m 60.438,36.672 c 14.769,-0.226 29.535,-0.449 44.43,-0.672 -0.204,-3.882 -0.403,-7.765 -0.598,-11.613 -10.52,0.152 -21.035,0.305 -31.43,0.457 -0.398,-5.125 -0.789,-10.176 -1.058,-15.265 2.285,0.57 5.058,0.816 8.445,0.769 7.645,-0.105 13.633,-2.519 18.191,-7.07 4.629,-4.617 6.614,-10.543 6.239,-17.883 -0.387,-7.59 -3.231,-13.789 -8.618,-18.574 -5.41,-4.805 -12.445,-7.172 -20.988,-7.071 -4.773,0.055 -8.75,0.883 -12.187,2.543 -3.305,1.602 -6.039,3.954 -8.176,6.895 -1.492,2.055 -2.762,4.773 -3.707,8.148 4.711,1.18 9.422,2.325 14.133,3.539 0.851,-2.91 2.195,-5.207 4.16,-6.769 2.137,-1.703 4.769,-2.465 7.535,-2.5 3.895,-0.047 7.211,1.125 9.988,3.594 2.762,2.449 4.184,5.601 4.383,9.449 0.219,4.234 -1.23,7.683 -4.105,10.371 -2.868,2.687 -7.317,4.059 -13.336,4.137 -2.633,0.035 -5.282,-0.2 -8.321,-0.774 -2.921,-0.551 -5.468,-1.34 -7.906,-2.301 0.977,13.54 1.953,27.047 2.926,40.59 z M 881.016,667.32 c 0.179,3.766 0.355,7.496 0.535,11.223 1,-0.047 1.879,-0.059 2.383,-0.066 4.761,-0.067 8.164,0.277 10.074,0.918 1.914,0.64 3.613,1.8 4.805,3.453 1.222,1.695 1.792,3.523 1.894,5.632 0.141,2.989 -0.684,5.493 -2.539,7.356 -1.98,1.992 -4.621,2.914 -8.129,2.969 -2.758,0.039 -5.309,-0.567 -7.355,-1.864 -2.09,-1.32 -3.664,-3.187 -4.786,-5.703 -4.582,1.188 -9.16,2.453 -13.734,3.68 1.875,5.012 5.074,8.867 9.457,11.562 4.395,2.7 9.965,4.04 16.594,3.938 9.137,-0.141 15.808,-2.746 19.918,-7.898 2.875,-3.602 4.273,-7.868 4.051,-12.68 -0.133,-2.848 -0.875,-5.512 -2.25,-7.985 -1.36,-2.445 -3.055,-4.515 -5.297,-6.011 -1.903,-1.262 -4.114,-2.16 -7.035,-2.93 2.988,-0.461 5.351,-1.238 7.281,-2.488 2.457,-1.586 4.418,-3.844 5.722,-6.578 1.333,-2.785 1.989,-5.828 1.833,-9.305 -0.301,-6.535 -2.903,-11.887 -7.782,-16.039 -4.933,-4.203 -11.601,-6.164 -20.148,-6.063 -5.528,0.067 -9.981,1.016 -13.57,2.762 -3.661,1.789 -6.559,4.149 -8.704,7.149 -1.382,1.937 -2.531,4.679 -3.367,8.25 4.707,1.14 9.41,2.242 14.235,3.378 0.734,-3.07 1.75,-5.207 3.078,-6.55 2.148,-2.18 5.117,-3.301 8.758,-3.344 4.019,-0.051 7.281,1.098 9.703,3.258 2.562,2.285 4.004,5.015 4.164,8.39 0.101,2.254 -0.453,4.313 -1.719,6.246 -1.195,1.829 -2.863,3.2 -5.207,4.047 -2.223,0.797 -5.59,1.231 -9.977,1.293 -0.629,0.004 -1.632,0.02 -2.886,0 z m 64.464,-0.847 c 0.168,3.754 0.336,7.468 0.5,11.187 1.129,-0.051 2.004,-0.058 2.504,-0.066 4.637,-0.067 8.036,0.297 9.95,0.918 2.027,0.656 3.601,1.765 4.793,3.437 1.207,1.699 1.906,3.516 2,5.621 0.128,2.977 -0.739,5.446 -2.692,7.332 -2.015,1.957 -4.633,2.911 -8.137,2.961 -2.753,0.039 -5.183,-0.566 -7.226,-1.859 -2.078,-1.316 -3.649,-3.176 -4.637,-5.691 -4.715,1.195 -9.293,2.453 -13.875,3.675 1.981,4.992 5.18,8.782 9.539,11.52 4.274,2.683 9.699,4.031 16.457,3.93 9.133,-0.137 15.614,-2.793 19.696,-7.872 2.933,-3.652 4.3,-7.843 4.089,-12.675 -0.117,-2.805 -0.851,-5.461 -2.093,-7.926 -1.227,-2.442 -3.188,-4.461 -5.403,-6.027 -1.672,-1.184 -3.98,-2.122 -6.898,-2.887 2.992,-0.461 5.32,-1.293 7.168,-2.481 2.547,-1.64 4.531,-3.785 5.871,-6.562 1.309,-2.727 1.883,-5.805 1.738,-9.274 -0.277,-6.511 -2.761,-11.82 -7.597,-15.992 -4.825,-4.16 -11.582,-6.176 -19.875,-6.082 -5.532,0.063 -10.133,1.012 -13.832,2.789 -3.559,1.715 -6.469,4.121 -8.477,7.125 -1.285,1.922 -2.426,4.668 -3.52,8.227 4.696,1.137 9.395,2.238 14.219,3.371 0.867,-3.067 1.766,-5.192 3.098,-6.531 2.156,-2.176 5.004,-3.289 8.898,-3.336 3.766,-0.047 7.114,1.004 9.567,3.25 2.386,2.183 3.859,5.004 4.004,8.367 0.097,2.242 -0.547,4.328 -1.739,6.226 -1.156,1.852 -2.882,3.172 -5.218,4.032 -2.106,0.773 -5.34,1.23 -9.86,1.289 -0.625,0.008 -1.504,0.019 -3.012,0.004 z m 85.07,40.238 c 14.39,-0.219 28.78,-0.434 43.42,-0.652 -0.14,-3.836 -0.29,-7.672 -0.43,-11.512 -10.27,0.152 -20.54,0.301 -30.68,0.484 -0.2,-5.062 -0.52,-10.09 -0.72,-15.086 2.15,0.567 4.8,0.805 8.05,0.766 7.52,-0.106 13.4,-2.508 17.92,-7.023 4.54,-4.54 6.63,-10.379 6.35,-17.633 -0.28,-7.532 -3.03,-13.629 -8.23,-18.356 -5.21,-4.746 -11.96,-7.082 -20.38,-6.988 -4.53,0.051 -8.52,0.848 -11.97,2.516 -3.21,1.554 -5.88,3.843 -8.02,6.804 -1.43,1.977 -2.82,4.719 -3.82,8.055 4.69,1.129 9.26,2.297 13.83,3.465 0.89,-2.844 2.3,-5.106 4.26,-6.656 2.06,-1.641 4.55,-2.434 7.31,-2.469 3.89,-0.043 7.08,1.113 9.69,3.551 2.6,2.421 3.98,5.535 4.12,9.304 0.16,4.188 -1.25,7.586 -4.12,10.25 -2.82,2.614 -7.24,4.039 -13.01,4.117 -2.51,0.036 -5.29,-0.179 -8.19,-0.765 -2.79,-0.563 -5.32,-1.328 -7.62,-2.278 0.66,13.383 1.45,26.727 2.24,40.106 z m 63.57,-0.961 c 14.39,-0.215 28.78,-0.43 43.05,-0.648 -0.13,-3.86 -0.26,-7.684 -0.4,-11.473 -10.14,0.148 -20.41,0.297 -30.42,0.441 -0.31,-5.011 -0.62,-10.023 -0.8,-15.004 2.15,0.563 4.92,0.805 8.05,0.762 7.65,-0.109 13.53,-2.5 17.94,-7 4.44,-4.527 6.54,-10.348 6.3,-17.578 -0.27,-7.512 -2.96,-13.621 -8.05,-18.305 -5.17,-4.761 -11.93,-7.062 -20.1,-6.968 -4.78,0.054 -8.74,0.918 -11.98,2.507 -3.31,1.625 -6.02,3.832 -8.17,6.786 -1.44,1.968 -2.72,4.671 -3.6,8.027 4.44,1.133 9.01,2.293 13.57,3.457 0.77,-2.832 2.24,-5.027 4.28,-6.637 1.99,-1.578 4.44,-2.422 7.44,-2.457 3.65,-0.043 6.82,1.11 9.43,3.539 2.59,2.414 3.96,5.485 4.09,9.278 0.15,4.171 -1.21,7.597 -4.03,10.214 -2.89,2.68 -7.39,4.032 -13.16,4.106 -2.5,0.035 -5.14,-0.238 -7.93,-0.797 -2.9,-0.582 -5.44,-1.285 -7.73,-2.23 0.74,13.339 1.48,26.644 2.22,39.98 z m 139.28,-2.137 c -0.11,-3.808 -0.22,-7.578 -0.33,-11.351 -10.51,-20.598 -21.05,-41.25 -31.61,-61.953 -5.15,0.058 -10.17,0.117 -15.21,0.175 10.96,20.539 21.75,41.063 32.66,61.532 -12.28,0.179 -24.55,0.359 -36.69,0.535 0.12,3.918 0.12,7.875 0.25,11.832 17.02,-0.258 33.91,-0.516 50.93,-0.77 z m 50.06,-0.758 c -0.65,-24.445 -1.3,-48.929 -1.96,-73.48 -4.27,0.055 -8.67,0.102 -13.07,0.156 0.46,16.719 0.92,33.442 1.37,50.133 0.11,3.731 0.31,6.699 0.63,9.078 -1.55,-1.531 -2.97,-2.855 -4.37,-4.015 -3.47,-2.852 -7.05,-5.711 -10.52,-8.567 -2.3,2.906 -4.72,5.809 -7.15,8.715 7.57,6.047 15.38,12.125 23.06,18.164 4,-0.062 7.88,-0.121 12.01,-0.184"
       style="fill:#000000;fill-opacity:1;fill-rule:nonzero;stroke:none"
       transform="matrix(0.13333333,0,0,-0.13333333,0,212)" />
    <path
       id="path5"
       d="m 589.148,659.133 v 0 z m 0,0 c -1.07,0.941 -6.425,5.683 -7.382,6.41 -0.957,0.691 -1.813,1.129 -3.004,0.145 -1.321,-1.016 -4.715,-3.114 -5.887,-3.743 -0.918,-0.597 -1.668,-0.515 -2.863,0.426 -0.942,1.016 -4.68,3.418 -8.09,8.969 -2.734,4.285 -3.813,9.019 -4.094,10.453 -0.414,1.434 0.496,1.922 1.281,2.379 0.778,0.379 1.825,1.082 2.739,1.641 0.785,0.523 1.32,0.984 1.988,1.722 0.676,0.668 0.727,1.453 0.644,2.133 -0.082,0.754 -0.527,7.516 -0.722,10.27 -0.328,2.644 -1.461,2.593 -2.199,2.89 -0.735,0.223 -1.594,0.488 -2.336,0.715 -0.985,0.227 -2.36,0.281 -4.051,-0.621 -1.684,-0.906 -5.957,-2.992 -7.977,-9.039 -2.152,-6.051 0.27,-13.203 0.707,-14.207 0.313,-1.008 4.504,-15.719 15.493,-24.578 2.628,-2.106 4.675,-3.524 6.238,-4.614 2.902,-1.785 5.754,-2.39 8,-2.668 2.617,-0.316 8.605,0.93 10.652,3.512 2.172,2.578 2.957,5.102 2.863,5.672 -0.21,0.609 -0.929,1.121 -2,2.133 v 0"
       style="fill:#000000;fill-opacity:1;fill-rule:evenodd;stroke:none"
       transform="matrix(0.13333333,0,0,-0.13333333,0,212)" />
    <path
       id="path6"
       d="m 571.121,711.223 c 20.59,-0.309 36.317,-16.41 35.102,-36.012 -1.215,-19.594 -18.973,-35.293 -39.637,-35.047 -20.668,0.238 -36.516,16.387 -35.223,36.051 1.289,19.664 19.168,35.32 39.758,35.008 z m 0.242,3.824 c 22.84,-0.352 40.215,-18.176 38.875,-39.887 -1.34,-21.715 -20.968,-39.121 -43.902,-38.851 -22.93,0.261 -40.422,18.16 -38.984,39.957 1.433,21.797 21.175,39.125 44.011,38.781"
       style="fill:#000000;fill-opacity:1;fill-rule:evenodd;stroke:none"
       transform="matrix(0.13333333,0,0,-0.13333333,0,212)" />
    <path
       id="path7"
       d="m 552.285,979.801 c 17.766,-0.488 35.535,-0.977 53.305,-1.461 0.09,-23.125 0.258,-46.27 0.351,-69.52 0.09,-23.34 0.18,-46.765 0.352,-70.297 -15.914,0.27 -31.906,0.543 -47.898,0.817 0.421,5.621 0.839,11.242 1.261,16.867 -7.152,0.129 -14.14,0.254 -21.215,0.383 -2.257,-5.598 -4.437,-11.199 -6.621,-16.805 -15.836,0.27 -31.59,0.539 -47.343,0.805 11.347,23.531 22.753,46.898 34.062,70.164 11.242,23.125 22.539,46.117 33.746,69.047 z m -2.566,-88.762 c 5.148,-0.105 10.453,-0.215 15.683,-0.324 0.918,13.808 1.828,27.59 2.739,41.348 -6.125,-13.641 -12.348,-27.313 -18.422,-41.024 z m 89.84,86.371 c 27.203,-0.746 54.406,-1.488 81.535,-2.23 -2.789,-12.121 -5.43,-24.266 -8.153,-36.414 -10.804,0.261 -21.531,0.527 -32.257,0.789 -1.157,-5.532 -2.387,-11.086 -3.465,-16.621 9.398,-0.243 18.879,-0.465 28.281,-0.684 -2.664,-12.23 -5.254,-24.512 -7.848,-36.797 -9.504,0.195 -19.093,0.391 -28.601,0.586 -3.539,-16.101 -7.012,-32.215 -10.488,-48.402 -16.547,0.281 -33.176,0.566 -49.805,0.847 5.144,23.43 10.387,46.735 15.453,69.93 5.043,23.106 10.227,46.063 15.348,68.996 z m 85.543,-2.344 c 16.671,-0.457 33.418,-0.914 50.086,-1.371 15.96,-0.437 27.867,-3.797 35.796,-10.058 7.946,-6.27 11.563,-15.321 11.133,-27.207 -0.324,-9.102 -3.215,-17.387 -8.734,-24.789 -5.528,-7.457 -12.547,-12.61 -20.988,-15.504 3.066,-10.153 6.168,-20.289 9.203,-30.489 3.035,-10.168 6.168,-20.398 9.336,-30.613 -17.504,0.297 -35.008,0.594 -52.516,0.887 -0.988,17.066 -1.973,34.066 -2.797,51.023 -3.621,-16.871 -7.172,-33.793 -10.808,-50.789 -16.391,0.274 -32.782,0.551 -49.094,0.832 4.894,23.282 9.851,46.434 14.703,69.492 4.832,22.973 9.805,45.797 14.68,68.586 z m 35.843,-62.906 c 5.535,-0.125 9.293,0.797 11.118,2.723 1.828,1.926 3.292,4.73 4.48,8.39 1.187,3.661 1.887,7.129 2.031,10.454 0.246,5.671 -2.785,8.632 -9.168,8.789 -0.711,0.019 -1.418,0.039 -2.133,0.054 -2.179,-10.125 -4.293,-20.254 -6.328,-30.41 z m 78.953,59.762 c 15.489,-0.422 30.977,-0.844 46.387,-1.27 -6.09,-3.136 -11.82,-7.109 -17.269,-11.957 -8.387,-7.465 -14.696,-15.875 -18.903,-25.152 -4.222,-9.32 -6.5,-19.543 -6.914,-30.473 -0.793,-21.043 5.809,-39.621 20.184,-55.078 -0.957,-4.597 -1.844,-9.199 -2.723,-13.801 -16.074,0.274 -32.226,0.543 -48.375,0.821 4.582,23.086 9.262,46.035 13.844,68.902 4.566,22.75 9.199,45.41 13.769,68.008"
       style="fill:#000000;fill-opacity:1;fill-rule:evenodd;stroke:none"
       transform="matrix(0.13333333,0,0,-0.13333333,0,212)" />
    <path
       id="path8"
       d="m 958.969,930.613 c -2.082,1.75 -3.922,3.703 -6.086,5.242 -8.129,5.782 -17.184,8.489 -26.715,8.731 -12.059,0.309 -22.371,-3.535 -30.754,-11.555 -8.418,-8.051 -12.828,-18.222 -13.207,-30.449 -0.394,-12.539 3.316,-23.105 11.285,-31.656 7.969,-8.551 18.235,-12.942 30.625,-13.18 9.367,-0.176 16.571,1.195 21.571,4.164 4.933,2.93 7.832,4.793 8.73,5.539 0.887,0.742 1.785,1.485 2.605,2.219 -0.226,-10.773 -0.531,-21.543 -0.832,-32.336 -1.207,-0.422 -2.41,-0.844 -3.539,-1.262 -3.371,-1.109 -6.746,-2.199 -10.043,-3.269 -0.32,-0.063 -0.562,-0.11 -0.796,-0.188 -3.059,-0.949 -6.102,-1.64 -9.059,-1.961 -3.031,-0.332 -6.543,-0.464 -10.602,-0.398 -20.531,0.344 -37.652,7.559 -51.394,21.621 -13.719,14.039 -20.192,31.055 -19.492,51.016 0.711,20.23 8.554,36.988 23.222,50.179 14.637,13.16 32.473,19.45 53.621,18.868 9.2,-0.254 18.684,-2.387 28.297,-6.555 0.965,-0.422 1.782,-0.957 2.793,-1.426 0.153,0 0.395,-0.012 0.629,-0.016 -0.312,-11.101 -0.547,-22.203 -0.859,-33.328 z m 49.501,36.692 c 10.46,-0.289 20.99,-0.575 31.53,-0.864 8.27,-22.578 16.64,-45.175 24.99,-67.843 8.36,-22.715 16.85,-45.477 25.37,-68.321 -10.34,0.196 -20.6,0.368 -30.95,0.543 -3.17,8.957 -6.33,17.895 -9.48,26.813 -18.66,0.355 -37.39,0.711 -56.129,1.066 -3.559,-8.832 -7.203,-17.695 -10.77,-26.582 -10.504,0.176 -21.008,0.352 -31.511,0.531 9.628,22.731 19.203,45.34 28.683,67.852 9.426,22.375 18.828,44.625 28.267,66.805 z m -4.84,-86.676 c 12.51,-0.258 24.95,-0.516 37.55,-0.777 -4.17,12.574 -8.26,25.109 -12.33,37.632 -1.04,3.028 -1.95,6.043 -2.88,9.079 -0.84,2.75 -1.47,5.082 -1.82,6.953 -0.35,1.871 -0.45,4.484 -0.37,7.839 -0.48,-3.714 -0.73,-6.105 -0.95,-7.167 -0.22,-1.059 -0.86,-3.583 -2.06,-7.5 -0.93,-3.008 -2.12,-5.958 -3.21,-8.918 -4.72,-12.356 -9.36,-24.719 -13.93,-37.141 z m 91.25,84.309 c 14,-0.383 27.99,-0.762 42.07,-1.149 15.48,-0.426 27.4,-4.164 35.75,-11.129 8.36,-6.965 12.43,-16.707 12.35,-29.222 -0.12,-20.747 -10.73,-33.594 -31.92,-38.606 6.87,-9.391 13.83,-18.793 20.64,-28.141 6.82,-9.378 13.82,-18.796 20.74,-28.183 -11.94,0.199 -23.79,0.406 -35.72,0.605 -10.24,15.703 -20.4,31.442 -30.65,47.071 -1.11,1.691 -2.28,3.312 -3.34,5.027 -1.03,1.684 -2.32,4.008 -3.78,6.914 0.36,-2.25 0.45,-4.34 0.54,-6.301 0.1,-1.918 0.1,-4.508 0.05,-7.726 -0.2,-14.75 -0.41,-29.528 -0.62,-44.344 -9.46,0.16 -18.85,0.32 -28.16,0.48 0.29,22.676 0.66,45.243 1.03,67.723 0.37,22.414 0.73,44.723 1.02,66.981 z m 27.05,-62.493 c 3.24,-0.07 6.48,-0.144 9.73,-0.218 7.19,-0.161 12.82,1.543 16.98,5.117 4.14,3.554 6.18,8.492 6.25,14.785 0.06,5.797 -1.78,10.496 -5.69,13.824 -2.65,2.266 -6.65,3.297 -11.77,3.43 -5.05,0.125 -10.02,0.254 -14.98,0.379 -0.17,-12.403 -0.34,-24.867 -0.52,-37.317 z m 86.26,-38.695 c 7.56,-8.703 15.56,-13.152 24.13,-13.312 5.24,-0.102 9.46,1.304 12.72,4.222 3.26,2.93 4.94,6.781 4.95,11.61 0.01,3.832 -1.1,6.925 -3.22,9.308 -2.14,2.406 -5.85,4.707 -11.31,6.942 -2.37,0.972 -4.71,2.011 -7.03,2.914 -3.85,1.496 -7.01,2.832 -9.4,4.023 -2.5,1.246 -6.78,4.141 -13,8.781 -6.22,4.633 -9.31,13.254 -9.22,25.825 0.09,11.66 4.49,21.304 13.28,28.902 8.78,7.582 19.49,11.219 32.3,10.867 10.69,-0.297 20.3,-3.078 28.45,-9.047 2.48,-1.816 4.64,-4.125 7,-6.187 -4.88,-6.516 -9.7,-13.039 -14.59,-19.547 -5.98,6.847 -12.67,10.375 -19.84,10.562 -4.72,0.121 -8.64,-1.16 -11.67,-3.82 -3.06,-2.691 -4.71,-6.273 -4.7,-10.828 0.01,-6.973 4.62,-12.145 13.75,-15.606 1.44,-0.543 2.91,-1.187 4.41,-1.757 4.89,-1.86 8.45,-3.293 10.82,-4.411 2.29,-1.078 6.86,-3.613 13.74,-7.586 6.88,-3.968 10.36,-13.3 10.36,-28.089 0,-12.965 -4.46,-23.383 -13.2,-31.286 -8.76,-7.925 -20.3,-11.792 -34.71,-11.554 -12.65,0.211 -21.54,2.301 -26.78,6.176 -5.29,3.914 -8.41,6.261 -9.5,7.175 -1.04,0.879 -2.6,2.493 -4.49,4.778 5.54,6.972 11.14,13.984 16.75,20.945"
       style="fill:#ffffff;fill-opacity:1;fill-rule:nonzero;stroke:none"
       transform="matrix(0.13333333,0,0,-0.13333333,0,212)" />
    <path
       id="path9"
       d="m 1078.37,765.316 c -0.17,-10.855 -0.33,-21.66 -0.41,-32.468 -4.73,0.054 -9.28,0.105 -13.83,0.156 0.1,12.824 0.32,25.656 0.52,38.457 0.21,12.754 0.42,25.527 0.63,38.277 8.3,-0.133 16.59,-0.265 24.99,-0.398 5.37,-0.086 9.52,-0.414 12.71,-1.078 3.12,-0.649 6.04,-1.899 8.73,-3.742 2.73,-1.872 4.8,-4.301 6.23,-7.305 1.43,-2.985 2.1,-6.387 2.05,-10.242 -0.05,-3.934 -0.85,-7.375 -2.4,-10.438 -1.54,-3.043 -3.84,-5.465 -6.8,-7.293 -2.19,-1.347 -5.05,-2.301 -8.56,-2.898 6.67,-11.34 13.43,-22.664 20.12,-33.989 -5.6,0.063 -11.09,0.125 -16.5,0.184 -5.83,10.859 -11.64,21.723 -17.36,32.645 -3.4,0.046 -6.81,0.093 -10.12,0.132 z m 0.18,11.786 c 2.93,-0.039 5.86,-0.079 8.88,-0.122 5.3,-0.074 8.8,0.059 10.51,0.497 2.47,0.64 4.35,1.839 5.72,3.5 1.41,1.722 2.22,3.753 2.25,6.199 0.04,2.344 -0.71,4.351 -1.99,6.082 -1.23,1.652 -2.99,2.875 -5.33,3.582 -1.7,0.512 -4.53,0.789 -8.49,0.851 -3.78,0.059 -7.46,0.114 -11.23,0.172 -0.11,-6.91 -0.21,-13.847 -0.32,-20.761 z m 100.59,-23.618 c -12.87,0.164 -25.84,0.325 -38.82,0.485 0.62,-4.27 2.11,-7.508 4.73,-9.793 2.55,-2.223 5.75,-3.403 9.63,-3.449 2.46,-0.028 4.66,0.492 6.75,1.589 2.01,1.059 4.1,2.903 6.2,5.465 3.11,-2.367 6.12,-4.738 9.23,-7.109 -2.87,-3.477 -6.13,-6.02 -10.02,-7.727 -3.73,-1.644 -8.18,-2.453 -13.3,-2.394 -8.25,0.09 -14.76,2.812 -19.64,8.156 -4.86,5.332 -7.16,11.938 -7.07,19.727 0.1,7.945 2.72,14.414 7.8,19.406 5.06,4.992 11.6,7.437 19.44,7.324 5.01,-0.07 9.43,-1.273 13.39,-3.605 3.94,-2.321 7,-5.528 8.99,-9.559 2.01,-4.047 2.96,-9.008 2.91,-14.953 -0.01,-0.797 -0.11,-1.973 -0.22,-3.563 z m -12.98,9.348 c 0.03,3.742 -1.2,6.711 -3.52,9.023 -2.26,2.266 -5.07,3.485 -8.66,3.536 -3.5,0.043 -6.44,-1.043 -8.93,-3.219 -2.48,-2.176 -4.02,-5.16 -4.63,-9.004 8.52,-0.113 17.13,-0.227 25.74,-0.336 z m 37.75,-31.375 c -4.36,0.047 -8.72,0.094 -12.99,0.141 0.08,10.679 0.15,21.355 0.22,32.058 0.06,7.809 0.11,14.336 0.05,19.567 4.06,-0.063 8.13,-0.121 12.19,-0.176 -0.02,-2.789 -0.04,-5.578 -0.06,-8.344 1.72,2.844 3.89,5.145 6.47,6.766 2.64,1.656 6.06,2.445 10.12,2.383 3.59,-0.047 6.63,-0.778 9.16,-2.172 2.47,-1.36 4.43,-3.047 5.84,-5.012 1.41,-1.98 2.35,-4.117 2.81,-6.371 0.47,-2.281 0.74,-6.063 0.72,-11.399 -0.03,-9.265 -0.06,-18.531 -0.1,-27.824 -4.27,0.051 -8.63,0.094 -12.8,0.141 0.04,9.25 0.08,18.496 0.12,27.746 0.02,3.453 -0.35,6.035 -1,7.758 -0.66,1.719 -1.69,3.117 -3.2,4.133 -1.6,1.07 -3.4,1.605 -5.38,1.628 -2.65,0.04 -4.92,-0.593 -6.92,-1.949 -1.99,-1.355 -3.37,-3.246 -4.19,-5.648 -0.63,-1.828 -0.98,-5.078 -1.01,-9.785 -0.05,-7.907 -0.09,-15.762 -0.05,-23.641 z m 79.68,50.434 c 0,-3.536 0,-7.102 0,-10.641 -4.73,0.066 -9.37,0.133 -14.09,0.191 -0.01,-7.183 -0.02,-14.339 -0.03,-21.5 0,-3.183 0.37,-5.378 1.23,-6.636 1.23,-1.825 3.31,-2.739 6.34,-2.778 2.37,-0.027 4.64,0.43 6.82,1.375 0,-3.64 0,-7.308 0,-10.922 -3.22,-0.957 -6.64,-1.425 -10.24,-1.39 -4.64,0.051 -8.23,0.965 -10.71,2.64 -2.54,1.715 -4.27,3.973 -5.21,6.84 -0.57,1.766 -0.83,5.059 -0.83,9.93 0.02,7.547 0.04,15.066 0.05,22.617 -3.59,0.047 -7.09,0.098 -10.59,0.145 0.01,3.547 0.02,7.121 0.03,10.664 3.59,-0.051 7.09,-0.102 10.77,-0.153 0.01,4.895 0.02,9.79 0.03,14.711 4.16,-0.062 8.22,-0.125 12.37,-0.191 -0.01,-4.918 -0.01,-9.809 -0.02,-14.699 4.72,-0.067 9.35,-0.133 14.08,-0.203"
       style="fill:#000000;fill-opacity:1;fill-rule:nonzero;stroke:none"
       transform="matrix(0.13333333,0,0,-0.13333333,0,212)" />
  </g>
</svg>
