<?xml version="1.0" standalone="no"?>
<!DOCTYPE svg PUBLIC "-//W3C//DTD SVG 20010904//EN"
 "http://www.w3.org/TR/2001/REC-SVG-20010904/DTD/svg10.dtd">
<svg version="1.0" xmlns="http://www.w3.org/2000/svg"
 width="1080.000000pt" height="204.000000pt" viewBox="0 0 1080.000000 204.000000"
 preserveAspectRatio="xMidYMid meet">

<g transform="translate(0.000000,204.000000) scale(0.100000,-0.100000)"
fill="#000000" stroke="none">
<path d="M5590 1500 c-89 -11 -162 -37 -225 -78 -65 -42 -129 -108 -119 -123
3 -5 0 -8 -7 -7 -17 4 -74 -91 -101 -171 -19 -55 -23 -86 -23 -191 1 -109 4
-134 27 -199 30 -83 64 -136 126 -200 37 -38 44 -42 60 -30 15 13 16 12 4 -3
-12 -15 -8 -20 29 -43 142 -90 355 -109 544 -48 83 26 85 30 85 159 l0 113
-67 -32 c-65 -30 -74 -32 -188 -32 -112 0 -124 2 -177 29 -32 15 -58 33 -58
38 0 6 -8 7 -17 4 -10 -4 -14 -4 -10 0 4 4 -4 21 -17 38 -51 67 -69 117 -73
206 -5 100 17 180 67 236 16 19 30 39 30 45 0 6 5 7 10 4 6 -3 10 -1 10 4 0 6
3 10 8 9 4 -1 33 7 66 16 46 14 82 17 165 14 93 -4 115 -9 174 -36 38 -18 71
-32 73 -32 2 0 4 56 4 125 0 81 -4 125 -11 125 -5 0 -7 5 -4 10 12 19 -65 40
-182 50 -129 11 -124 11 -203 0z m-243 -116 c-3 -3 -12 -4 -19 -1 -8 3 -5 6 6
6 11 1 17 -2 13 -5z m-210 -366 c-3 -8 -6 -5 -6 6 -1 11 2 17 5 13 3 -3 4 -12
1 -19z"/>
<path d="M8295 1491 c-90 -26 -187 -100 -177 -134 1 -5 -2 -6 -8 -2 -19 12
-63 -103 -68 -179 -5 -87 8 -140 47 -187 40 -48 200 -128 175 -87 -4 7 -3 8 5
4 6 -4 9 -11 7 -15 -7 -10 160 -64 179 -57 9 3 14 2 11 -3 -3 -4 6 -14 19 -21
29 -16 51 -76 41 -115 -4 -14 -22 -43 -41 -63 -33 -37 -34 -37 -122 -40 -77
-2 -99 1 -173 28 -125 45 -120 44 -120 29 0 -8 -15 -51 -34 -97 l-33 -83 23
-18 c12 -10 59 -30 104 -45 280 -92 521 -30 606 157 38 84 46 203 16 270 -25
56 -90 130 -109 123 -8 -3 -11 -2 -8 4 7 12 -32 33 -47 24 -6 -4 -8 -3 -5 3 8
13 -20 26 -35 16 -6 -3 -8 -1 -5 5 4 6 -28 25 -81 47 -126 52 -144 69 -150
137 -4 50 -2 57 22 75 14 11 23 23 20 26 -3 3 39 5 93 3 85 -1 105 -5 151 -29
29 -15 58 -25 64 -21 7 4 8 3 4 -4 -4 -7 -3 -12 1 -12 5 0 24 43 42 97 l34 96
-22 19 c-32 25 -155 61 -191 56 -16 -2 -27 -1 -24 4 9 15 -150 7 -211 -11z
m173 2 c-10 -2 -28 -2 -40 0 -13 2 -5 4 17 4 22 1 32 -1 23 -4z m-243 -63 c-1
-11 -5 -23 -10 -27 -4 -5 -5 -3 -1 4 3 6 1 15 -5 19 -8 4 -7 9 2 15 8 5 14 9
15 9 0 0 0 -9 -1 -20z m192 -116 c-3 -3 -12 -4 -19 -1 -8 3 -5 6 6 6 11 1 17
-2 13 -5z m163 -14 c11 -8 7 -9 -15 -4 -37 8 -45 14 -19 14 10 0 26 -5 34 -10z
m-513 -82 c-3 -8 -6 -5 -6 6 -1 11 2 17 5 13 3 -3 4 -12 1 -19z m200 -30 c-3
-8 -6 -5 -6 6 -1 11 2 17 5 13 3 -3 4 -12 1 -19z m238 -168 c3 -6 -1 -7 -9 -4
-18 7 -21 14 -7 14 6 0 13 -4 16 -10z m-374 -47 c13 -16 12 -17 -3 -4 -17 13
-22 21 -14 21 2 0 10 -8 17 -17z m219 -93 c8 -5 11 -10 5 -10 -5 0 -17 5 -25
10 -8 5 -10 10 -5 10 6 0 17 -5 25 -10z m407 -177 c-3 -10 -5 -4 -5 12 0 17 2
24 5 18 2 -7 2 -21 0 -30z m-470 -129 c-3 -3 -12 -4 -19 -1 -8 3 -5 6 6 6 11
1 17 -2 13 -5z m394 -77 c-10 -9 -11 -8 -5 6 3 10 9 15 12 12 3 -3 0 -11 -7
-18z m-611 9 c0 -2 -8 -10 -17 -17 -16 -13 -17 -12 -4 4 13 16 21 21 21 13z"/>
<path d="M2260 1434 c-16 -37 -30 -68 -30 -70 0 -1 -75 -161 -166 -356 -92
-194 -172 -366 -179 -383 -8 -16 -36 -77 -64 -135 -28 -57 -49 -106 -47 -108
2 -1 75 -3 162 -4 181 0 166 -8 210 107 l29 75 177 0 178 0 0 -77 c0 -43 4
-84 9 -92 7 -10 44 -14 161 -15 83 0 153 1 155 4 1 3 -15 122 -36 265 -21 143
-57 386 -79 540 -22 154 -43 288 -46 297 -5 16 -23 18 -205 18 l-199 0 -30
-66z m220 -406 c11 -89 20 -175 20 -190 l0 -28 -105 0 -104 0 65 158 c36 86
73 174 81 195 9 20 18 35 20 33 3 -2 13 -78 23 -168z"/>
<path d="M3060 1498 c0 -2 -18 -122 -40 -268 -98 -657 -122 -830 -117 -842 3
-10 39 -12 158 -8 l153 5 27 190 c16 105 28 193 29 197 0 4 77 9 172 10 l172
3 23 135 c12 74 22 136 23 138 0 1 -77 2 -171 2 l-171 0 7 61 c4 33 10 73 14
87 l7 27 172 3 c95 1 172 5 172 7 0 11 30 212 35 233 l5 22 -335 0 c-184 0
-335 -1 -335 -2z"/>
<path d="M3805 1488 c-2 -7 -11 -69 -20 -138 -9 -69 -43 -313 -76 -544 -33
-230 -58 -421 -55 -423 7 -7 295 -7 302 0 6 5 15 61 53 315 10 68 20 125 23
127 2 2 40 -95 84 -217 61 -167 85 -223 100 -227 10 -3 87 -4 171 -1 l152 5
-19 45 c-41 97 -150 380 -150 389 0 6 22 20 50 32 114 49 182 168 183 324 1
106 -12 142 -74 210 -53 58 -117 91 -200 105 -96 15 -519 13 -524 -2z m420
-242 c42 -18 55 -42 55 -103 0 -62 -17 -94 -60 -115 -31 -15 -148 -28 -159
-17 -3 2 2 59 9 127 l14 122 53 0 c30 0 69 -6 88 -14z"/>
<path d="M4755 1488 c-2 -7 -34 -224 -70 -483 -36 -259 -70 -500 -75 -537 -6
-37 -10 -72 -10 -77 0 -14 316 -15 325 -1 3 5 15 69 26 142 28 187 139 958
139 963 0 3 -74 5 -165 5 -124 0 -167 -3 -170 -12z"/>
<path d="M6438 1493 c-30 -5 -48 -45 -126 -283 -23 -69 -71 -208 -107 -310
-113 -315 -175 -494 -175 -508 0 -10 29 -12 127 -10 l127 3 12 35 c7 19 23 70
36 112 13 43 28 79 33 81 6 2 46 0 90 -5 44 -4 132 -6 196 -2 l116 6 29 -113
29 -114 128 -3 c84 -2 127 1 127 8 0 6 -22 72 -49 148 -27 75 -58 160 -67 189
-16 44 -21 50 -34 40 -13 -11 -13 -10 -1 6 12 15 9 32 -26 130 -23 61 -53 149
-69 194 -15 45 -32 79 -38 76 -5 -3 -6 -1 -2 5 10 17 -86 292 -102 292 -7 0
-11 4 -8 9 3 5 -4 11 -17 15 -24 6 -185 6 -229 -1z m178 -478 c25 -93 49 -180
51 -192 5 -23 5 -23 -116 -23 -99 0 -123 3 -127 15 -4 8 -11 12 -17 8 -6 -3
-7 -1 -3 6 4 6 11 9 15 7 11 -7 72 189 65 210 -4 13 -3 15 3 6 7 -8 18 13 38
68 15 45 31 78 36 73 4 -4 29 -84 55 -178z m-114 79 c-8 -15 -9 -15 -15 0 -4
10 -3 15 3 11 6 -3 10 2 11 12 0 10 3 13 5 6 3 -7 1 -20 -4 -29z m-210 -6 c-8
-8 -9 -4 -5 13 4 13 8 18 11 10 2 -7 -1 -18 -6 -23z m-31 -81 c-10 -9 -11 -8
-5 6 3 10 9 15 12 12 3 -3 0 -11 -7 -18z m593 -3 c3 -8 2 -12 -4 -9 -6 3 -10
10 -10 16 0 14 7 11 14 -7z m-207 -46 c-3 -8 -6 -5 -6 6 -1 11 2 17 5 13 3 -3
4 -12 1 -19z m250 -100 c-3 -8 -6 -5 -6 6 -1 11 2 17 5 13 3 -3 4 -12 1 -19z
m-706 -65 c-12 -20 -14 -14 -5 12 4 9 9 14 11 11 3 -2 0 -13 -6 -23z m352 -10
c-13 -2 -33 -2 -45 0 -13 2 -3 4 22 4 25 0 35 -2 23 -4z m-389 -139 c3 -8 2
-12 -4 -9 -6 3 -10 10 -10 16 0 14 7 11 14 -7z m-31 -39 c-3 -9 -8 -14 -10
-11 -3 3 -2 9 2 15 9 16 15 13 8 -4z m884 -47 c-3 -8 -6 -5 -6 6 -1 11 2 17 5
13 3 -3 4 -12 1 -19z m-700 -60 c-3 -8 -6 -5 -6 6 -1 11 2 17 5 13 3 -3 4 -12
1 -19z m-240 -60 c-3 -8 -6 -5 -6 6 -1 11 2 17 5 13 3 -3 4 -12 1 -19z"/>
<path d="M7164 1492 c-9 -5 -13 -152 -14 -542 -1 -294 -2 -543 -1 -552 1 -16
14 -18 131 -18 l130 0 2 212 c3 208 3 213 24 216 18 3 36 -22 112 -155 49 -87
102 -182 116 -211 15 -29 32 -55 39 -58 7 -2 75 -3 150 -2 l138 3 -61 99 c-33
54 -92 154 -131 223 -68 119 -71 127 -54 139 10 8 23 14 28 14 4 0 6 4 2 9 -3
5 -1 12 5 16 5 3 10 0 10 -7 1 -9 4 -7 10 3 5 9 21 20 35 23 21 5 25 11 20 29
-5 16 -4 18 3 8 8 -11 14 -8 28 14 10 15 19 33 21 39 1 6 9 29 17 51 15 41 22
170 8 148 -5 -8 -8 2 -8 23 0 19 -4 38 -9 42 -6 4 -11 18 -13 31 -3 31 -41 83
-54 75 -6 -4 -8 -2 -5 4 9 13 -73 74 -91 67 -7 -2 -11 -1 -7 4 7 12 -72 37
-155 51 -74 11 -409 13 -426 2z m457 -242 c37 -17 59 -60 59 -119 0 -105 -45
-143 -182 -149 l-88 -4 0 139 c0 77 3 143 8 147 10 12 172 0 203 -14z m-224
-192 c-2 -35 -3 -7 -3 62 0 69 1 97 3 63 2 -35 2 -91 0 -125z m530 80 c-3 -8
-6 -5 -6 6 -1 11 2 17 5 13 3 -3 4 -12 1 -19z m-530 -555 c-2 -38 -3 -7 -3 67
0 74 1 105 3 68 2 -38 2 -98 0 -135z m381 72 c-3 -3 -9 2 -12 12 -6 14 -5 15
5 6 7 -7 10 -15 7 -18z"/>
</g>
</svg>
